<svg xmlns="http://www.w3.org/2000/svg" width="1024.5" height="196.503" viewBox="0 0 1024.5 196.503">
  <g id="Group_5" data-name="Group 5" transform="translate(0.278 -413.483)">
    <g id="Group_1" data-name="Group 1" transform="translate(0.222 413.983)">
      <path id="Path_1" data-name="Path 1" d="M175.021,1156.914q-13.184,7.383-36.65,7.384t-41.307-16.874q-17.842-16.875-17.842-41.923t15.557-41.924q15.557-16.874,40.165-16.874a125.316,125.316,0,0,1,38.847,6.152l-2.11,6.68a127.823,127.823,0,0,0-37.792-5.625q-19.51,0-32.782,14.853t-13.272,36.386a49.469,49.469,0,0,0,15.38,36.649q15.379,15.121,35.6,15.116t33.573-5.624Z" transform="translate(-79.222 -1046.352)" fill="#1a1818" stroke="#1a1818" stroke-miterlimit="10" stroke-width="1"/>
      <path id="Path_2" data-name="Path 2" d="M253.142,1172.032v-94.166h6.674v94.166Z" transform="translate(-132.199 -1055.844)" fill="#1a1818" stroke="#1a1818" stroke-miterlimit="10" stroke-width="1"/>
      <path id="Path_3" data-name="Path 3" d="M323.035,1083.814H291.114v-5.948h70.371v5.948H329.565v88.218h-6.53Z" transform="translate(-143.765 -1055.844)" fill="#1a1818" stroke="#1a1818" stroke-miterlimit="10" stroke-width="1"/>
      <path id="Path_4" data-name="Path 4" d="M440.231,1172.032H433.7V1138.37l-35.547-60.5h7.98l27.424,46.721a67,67,0,0,0,3.627,6.818q.869-1.883,3.626-6.674l27.423-46.865h7.545l-35.547,60.794Z" transform="translate(-176.37 -1055.844)" fill="#1a1818" stroke="#1a1818" stroke-miterlimit="10" stroke-width="1"/>
      <path id="Path_5" data-name="Path 5" d="M559.788,1053.229q-9.491,0-15.468,4.571t-5.976,12.831q0,9.491,7.909,17.05a110.738,110.738,0,0,0,14.5,11.515q8.875,6.063,12.217,8.7t8.086,7.206q8.609,8.615,8.612,19.863,0,14.593-9.756,22.061t-27.246,7.469q-17.491,0-29.266-9.14l4.218-6.152a44.411,44.411,0,0,0,25.312,8.086q13.355,0,20.828-5.626t7.471-15.82q0-8.787-7.559-16.172a104.171,104.171,0,0,0-14.15-11.425q-8.878-6.151-12.391-8.877a104.791,104.791,0,0,1-8.263-7.295q-8.963-8.965-8.964-20.742t8.35-18.457q8.347-6.679,23.115-6.679a59.27,59.27,0,0,1,26.541,5.8l-2.987,6.5Q574.023,1053.227,559.788,1053.229Z" transform="translate(-214.521 -1046.198)" fill="#1a1818" stroke="#1a1818" stroke-miterlimit="10" stroke-width="1"/>
      <path id="Path_6" data-name="Path 6" d="M730.639,1166.754q-10.882,6.094-30.252,6.094t-34.1-13.93q-14.729-13.929-14.728-34.6t12.841-34.606q12.843-13.929,33.155-13.929a103.378,103.378,0,0,1,32.065,5.079l-1.741,5.513a105.52,105.52,0,0,0-31.2-4.643q-16.105,0-27.06,12.26t-10.954,30.034a40.829,40.829,0,0,0,12.7,30.252q12.693,12.482,29.38,12.479t27.713-4.643Z" transform="translate(-253.559 -1055.208)" fill="#1a1818" stroke="#1a1818" stroke-miterlimit="10" stroke-width="1"/>
      <path id="Path_7" data-name="Path 7" d="M799.495,1171.778v-93.731q12.478-1.014,21.184-1.015,13.346,0,22.054,6.891t8.706,19.66a27.553,27.553,0,0,1-4.934,15.815,46.462,46.462,0,0,1-11.172,11.752q17.266,22.927,21.33,27.424,8.27,8.563,17.992,9.721l-.146,4.5q-8.128-.146-13.2-2.394a31.644,31.644,0,0,1-10.085-7.617q-5-5.368-21.982-28.874-11.752,0-23.07-.726v38.6Zm26.117-43.383q5.659,0,12.188-7.546a26,26,0,0,0,6.53-17.555q0-10.012-6.82-15.236t-17.7-5.224q-5.8,0-13.638.581v44.254Q816.615,1128.4,825.612,1128.4Z" transform="translate(-298.62 -1055.59)" fill="#1a1818" stroke="#1a1818" stroke-miterlimit="10" stroke-width="1"/>
      <path id="Path_8" data-name="Path 8" d="M926.351,1172.032v-94.166h43.963v5.8h-37.29v34.243h33.663v5.658H933.024v42.368h38.742v6.094Z" transform="translate(-337.261 -1055.844)" fill="#1a1818" stroke="#1a1818" stroke-miterlimit="10" stroke-width="1"/>
      <path id="Path_9" data-name="Path 9" d="M1030.051,1172.032v-94.166h43.963v5.8h-37.29v34.243h33.661v5.658h-33.661v42.368h38.74v6.094Z" transform="translate(-368.848 -1055.844)" fill="#1a1818" stroke="#1a1818" stroke-miterlimit="10" stroke-width="1"/>
      <path id="Path_10" data-name="Path 10" d="M1133.747,1171.778v-94.746h3.193l61.811,71.1q3.337,3.775,6.165,7.473t2.975,3.844q-.293-3.481-.291-13.638v-68.195h6.676v94.746h-3.193l-62.972-72.256-7.98-9.722q.289,2.9.291,13.639v67.759Z" transform="translate(-400.435 -1055.59)" fill="#1a1818" stroke="#1a1818" stroke-miterlimit="10" stroke-width="1"/>
    </g>
    <g id="Group_3" data-name="Group 3" transform="translate(859.248 434.401)">
      <circle id="Ellipse_1" data-name="Ellipse 1" cx="13.424" cy="13.424" r="13.424" transform="translate(0 34.442)" fill="#248432"/>
      <circle id="Ellipse_2" data-name="Ellipse 2" cx="10.381" cy="10.381" r="10.381" transform="translate(37.415 37.486)" fill="#040505"/>
      <circle id="Ellipse_3" data-name="Ellipse 3" cx="10.381" cy="10.381" r="10.381" transform="translate(71.394 37.486)" fill="#040505"/>
      <circle id="Ellipse_4" data-name="Ellipse 4" cx="10.381" cy="10.381" r="10.381" transform="translate(106.723 37.486)" fill="#040505"/>
      <circle id="Ellipse_5" data-name="Ellipse 5" cx="13.424" cy="13.424" r="13.424" transform="translate(0 68.869)" fill="#248432"/>
      <circle id="Ellipse_6" data-name="Ellipse 6" cx="13.424" cy="13.424" r="13.424" transform="translate(0 103.556)" fill="#248432"/>
      <circle id="Ellipse_7" data-name="Ellipse 7" cx="13.424" cy="13.424" r="13.424" transform="translate(0 137.938)" fill="#248432"/>
      <circle id="Ellipse_8" data-name="Ellipse 8" cx="10.381" cy="10.381" r="10.381" transform="translate(37.415 71.912)" fill="#040505"/>
      <circle id="Ellipse_9" data-name="Ellipse 9" cx="10.381" cy="10.381" r="10.381" transform="translate(37.415 106.598)" fill="#040505"/>
      <circle id="Ellipse_10" data-name="Ellipse 10" cx="13.424" cy="13.424" r="13.424" transform="translate(34.372 137.938)" fill="#248432"/>
      <circle id="Ellipse_11" data-name="Ellipse 11" cx="10.381" cy="10.381" r="10.381" transform="translate(72.091 71.912)" fill="#040505"/>
      <circle id="Ellipse_12" data-name="Ellipse 12" cx="10.381" cy="10.381" r="10.381" transform="translate(72.091 106.598)" fill="#040505"/>
      <circle id="Ellipse_13" data-name="Ellipse 13" cx="13.424" cy="13.424" r="13.424" transform="translate(69.048 137.938)" fill="#248432"/>
      <circle id="Ellipse_14" data-name="Ellipse 14" cx="10.381" cy="10.381" r="10.381" transform="translate(106.723 71.912)" fill="#040505"/>
      <circle id="Ellipse_15" data-name="Ellipse 15" cx="10.381" cy="10.381" r="10.381" transform="translate(106.723 106.598)" fill="#040505"/>
      <circle id="Ellipse_16" data-name="Ellipse 16" cx="13.424" cy="13.424" r="13.424" transform="translate(103.68 137.938)" fill="#248432"/>
      <circle id="Ellipse_17" data-name="Ellipse 17" cx="13.424" cy="13.424" r="13.424" transform="translate(138.127 137.938)" fill="#248432"/>
      <circle id="Ellipse_18" data-name="Ellipse 18" cx="13.424" cy="13.424" r="13.424" transform="translate(0 0)" fill="#248432"/>
      <circle id="Ellipse_19" data-name="Ellipse 19" cx="13.424" cy="13.424" r="13.424" transform="translate(34.372 0)" fill="#248432"/>
      <circle id="Ellipse_20" data-name="Ellipse 20" cx="13.424" cy="13.424" r="13.424" transform="translate(69.048 0)" fill="#248432"/>
      <circle id="Ellipse_21" data-name="Ellipse 21" cx="13.424" cy="13.424" r="13.424" transform="translate(103.68 0)" fill="#248432"/>
      <circle id="Ellipse_22" data-name="Ellipse 22" cx="13.424" cy="13.424" r="13.424" transform="translate(138.127 0)" fill="#248432"/>
    </g>
    <path id="Path_26" data-name="Path 26" d="M-369.751-26.1h-8.906v.029a7.679,7.679,0,0,0-4.717,1.641,5.093,5.093,0,0,0-1.875,4.131,5.01,5.01,0,0,0,1.875,4.1,7.715,7.715,0,0,0,4.717,1.7v.029h8.906Zm2.607-2.666V0h-2.607V-11.836h-7.061l-.615,1.377-1.7,3.6L-382.32,0h-2.9l5.566-11.924a9.917,9.917,0,0,1-5.566-2.432,7.506,7.506,0,0,1-2.7-5.918V-20.3a7.537,7.537,0,0,1,2.7-5.947,10.172,10.172,0,0,1,6.445-2.49v-.029Zm9.534,0h2.637v4.043a16.885,16.885,0,0,1,1.67-1.934,15.542,15.542,0,0,1,11.367-4.687,15.5,15.5,0,0,1,11.382,4.7,15.5,15.5,0,0,1,4.7,11.382,15.517,15.517,0,0,1-4.7,11.367A15.479,15.479,0,0,1-341.936.82,15.493,15.493,0,0,1-353.3-3.9a16.885,16.885,0,0,1-1.67-1.934V10.986h-2.637Zm2.637,10.752v5.508a12.84,12.84,0,0,0,3.633,6.65,12.815,12.815,0,0,0,9.4,3.9,12.815,12.815,0,0,0,9.4-3.9,12.815,12.815,0,0,0,3.9-9.4,12.815,12.815,0,0,0-3.9-9.4,12.815,12.815,0,0,0-9.4-3.9,12.815,12.815,0,0,0-9.4,3.9A12.84,12.84,0,0,0-354.973-18.018Zm54.505-10.752-7.09,8.789L-296.278,0H-299.5l-9.785-17.871-5.859,6.5V0h-2.666V-28.77h2.666v13.184l11.279-13.184ZM-259.41,0h-2.637V-5.859a19.726,19.726,0,0,1-1.67,1.963A15.527,15.527,0,0,1-275.113.82,15.493,15.493,0,0,1-286.48-3.9,15.493,15.493,0,0,1-291.2-15.264a15.527,15.527,0,0,1,4.717-11.4,15.493,15.493,0,0,1,11.367-4.717,15.527,15.527,0,0,1,11.4,4.717,19.726,19.726,0,0,1,1.67,1.963V-28.77h2.637Zm-2.637-12.656v-5.215a12.823,12.823,0,0,0-3.662-6.8,12.815,12.815,0,0,0-9.4-3.9,12.815,12.815,0,0,0-9.4,3.9,12.815,12.815,0,0,0-3.9,9.4,12.767,12.767,0,0,0,3.9,9.39,12.839,12.839,0,0,0,9.4,3.882,12.815,12.815,0,0,0,9.4-3.9A12.812,12.812,0,0,0-262.046-12.656Zm29.31-13.447h-8.906v.029a7.679,7.679,0,0,0-4.717,1.641,5.093,5.093,0,0,0-1.875,4.131,5.01,5.01,0,0,0,1.875,4.1,7.715,7.715,0,0,0,4.717,1.7v.029h8.906Zm2.607-2.666V0h-2.607V-11.836H-239.8l-.615,1.377-1.7,3.6L-245.305,0h-2.9l5.566-11.924a9.917,9.917,0,0,1-5.566-2.432,7.506,7.506,0,0,1-2.7-5.918V-20.3a7.537,7.537,0,0,1,2.7-5.947,10.172,10.172,0,0,1,6.445-2.49v-.029Zm57.623,9.346a13.312,13.312,0,0,0-3.281-5.244,12.815,12.815,0,0,0-9.4-3.9,12.815,12.815,0,0,0-9.4,3.9,12.265,12.265,0,0,0-2.52,3.6h-2.959a14.1,14.1,0,0,1,3.486-5.6,15.513,15.513,0,0,1,11.4-4.687,15.532,15.532,0,0,1,11.353,4.7,15.489,15.489,0,0,1,4.731,11.411A15.435,15.435,0,0,1-173.839-3.9,15.507,15.507,0,0,1-185.191.82a15.465,15.465,0,0,1-11.4-4.717,20.231,20.231,0,0,1-1.494-1.582h3.9a12.813,12.813,0,0,0,8.994,3.486,12.864,12.864,0,0,0,9.4-3.867,12.719,12.719,0,0,0,3.9-9.375,9.088,9.088,0,0,0-.117-1.494H-190v-2.7Zm23.978,15.5,10.752-24.844h2.813V0H-137.6V-22.266L-147.239,0h-2.607l-9.668-22.266V0h-2.607V-28.77h2.813Zm36.722-27.451a15.479,15.479,0,0,1,11.382,4.717,15.551,15.551,0,0,1,4.7,11.4,15.517,15.517,0,0,1-4.7,11.367A15.479,15.479,0,0,1-111.806.82,15.493,15.493,0,0,1-123.173-3.9a15.493,15.493,0,0,1-4.717-11.367,15.527,15.527,0,0,1,4.717-11.4A15.493,15.493,0,0,1-111.806-31.377Zm0,2.813a12.815,12.815,0,0,0-9.4,3.9,12.815,12.815,0,0,0-3.9,9.4,12.767,12.767,0,0,0,3.9,9.39,12.839,12.839,0,0,0,9.4,3.882,12.839,12.839,0,0,0,9.4-3.882,12.767,12.767,0,0,0,3.9-9.39,12.815,12.815,0,0,0-3.9-9.4A12.815,12.815,0,0,0-111.806-28.564ZM-63.834,0H-87.975V-28.77h2.607V-2.637h19.219V-28.77h2.607v25.9h2.314V10.986h-2.607Zm8.8-28.77h2.607V-4.395l18.4-24.375h2.842V0h-2.637V-24.58L-52.425-.029V0h-2.607ZM-5.947-26.1h-8.906v.029a7.679,7.679,0,0,0-4.717,1.641A5.093,5.093,0,0,0-21.445-20.3a5.01,5.01,0,0,0,1.875,4.1,7.715,7.715,0,0,0,4.717,1.7v.029h8.906ZM-3.34-28.77V0H-5.947V-11.836h-7.061l-.615,1.377-1.7,3.6L-18.516,0h-2.9l5.566-11.924a9.917,9.917,0,0,1-5.566-2.432,7.506,7.506,0,0,1-2.7-5.918V-20.3a7.537,7.537,0,0,1,2.7-5.947,10.172,10.172,0,0,1,6.445-2.49v-.029Z" transform="translate(811 599)"/>
  </g>
</svg>
